<svg xmlns="http://www.w3.org/2000/svg" viewBox="0 0 512 512"><defs><style>.cls-1{fill:#fff;}.cls-2{fill:none;}</style></defs><title>Asset 12</title><g id="Layer_2" data-name="Layer 2"><g id="Layer_1-2" data-name="Layer 1"><path class="cls-1" d="M70.33,329.55V182.45h86.78l21.22,21.22v41.6L167.62,256l10.72,10.72v41.61l-21.22,21.22Zm78.59-113.69-4.41-4.41H99.75v31.1h44.76l4.41-4.41Zm0,58-4.41-4.41H99.75v31.1h44.76l4.41-4.41Z"/><polygon class="cls-1" points="224.8 329.55 203.57 308.32 203.57 203.68 224.8 182.46 290.36 182.46 311.58 203.68 311.58 231 282.16 231 282.16 215.86 277.75 211.45 237.4 211.45 232.99 215.86 232.99 296.13 237.4 300.54 277.75 300.54 282.16 296.13 282.16 281 311.58 281 311.58 308.32 290.36 329.55 224.8 329.55"/><polygon class="cls-1" points="354.88 329.55 333.66 308.32 333.66 203.68 354.88 182.46 420.44 182.46 441.67 203.68 441.67 231 412.25 231 412.25 215.86 407.83 211.45 367.49 211.45 363.08 215.86 363.08 296.13 367.49 300.54 407.83 300.54 412.25 296.13 412.25 281 441.67 281 441.67 308.32 420.44 329.55 354.88 329.55"/><rect class="cls-2" width="512" height="512"/><rect class="cls-2" width="512" height="512"/></g></g></svg>