<svg xmlns="http://www.w3.org/2000/svg" viewBox="0 0 512 512"><defs><linearGradient id="linear-gradient" x1="-104.51" y1="676.02" x2="-102.39" y2="676.02" gradientTransform="matrix(241.34 0 0 -241.34 25222.8 163405.21)" gradientUnits="userSpaceOnUse"><stop offset="0" stop-color="#000a20"/><stop offset="1" stop-color="#00427d"/></linearGradient><clipPath id="clip-path"><path class="cls-1" d="M0 0h512v512H0z"/></clipPath><style>.cls-1{fill:none}.cls-2{clip-path:url(#clip-path)}.cls-4{fill:#fff}</style></defs><g id="Layer_2" data-name="Layer 2"><g class="cls-2" id="Layer_1-2" data-name="Layer 1"><path fill="url(#linear-gradient)" d="M0 0h512v512H0z"/><path class="cls-4" d="M70.33 329.55v-147.1h86.78l21.22 21.22v41.6L167.62 256l10.72 10.72v41.61l-21.22 21.22zm78.59-113.69l-4.41-4.41H99.75v31.1h44.76l4.41-4.41zm0 58l-4.41-4.41H99.75v31.1h44.76l4.41-4.41zM224.8 329.55l-21.23-21.23V203.68l21.23-21.22h65.56l21.22 21.22V231h-29.42v-15.14l-4.41-4.41H237.4l-4.41 4.41v80.27l4.41 4.41h40.35l4.41-4.41V281h29.42v27.32l-21.22 21.23H224.8zM354.88 329.55l-21.22-21.23V203.68l21.22-21.22h65.56l21.23 21.22V231h-29.42v-15.14l-4.42-4.41h-40.34l-4.41 4.41v80.27l4.41 4.41h40.34l4.42-4.41V281h29.42v27.32l-21.23 21.23h-65.56z"/><path class="cls-1" d="M0 0h512v512H0z"/></g></g></svg>