<svg xmlns="http://www.w3.org/2000/svg" width="18.236" height="18.236"><path data-name="Path 45" d="M10.084.5l-6.39.149-1.928.977-1 1.452-.347 4.859v6.549l.981 1.743L2.849 17.5l3.037.343h6.47l2.825-.158 1.928-1.452.634-2.429v-9.96l-.766-1.532L15.5 1.045 13.2.5z" fill="#fff"/><g data-name="Group 13"><g data-name="Regular 13" fill="none" stroke="#00427c" stroke-linecap="round" stroke-linejoin="round" transform="translate(.5 .5)"><rect data-name="Rectangle-path 5" width="17.236" height="17.236" rx="4"/><path data-name="Oval 8" d="M8.617 12.448a3.83 3.83 0 10-3.83-3.83 3.831 3.831 0 003.83 3.83z"/><path data-name="Shape 16" d="M14.248 3.371a.383.383 0 01-.766 0"/><path data-name="Shape 17" d="M13.482 3.371a.383.383 0 01.766 0"/></g></g></svg>