<svg xmlns="http://www.w3.org/2000/svg" width="39.849" height="39.926"><path d="M32.985 0H6.864A6.863 6.863 0 000 6.864v26.2a6.863 6.863 0 006.864 6.864h26.12a6.863 6.863 0 006.864-6.864v-26.2A6.847 6.847 0 0032.985 0zm4.962 33.062A4.937 4.937 0 0133.01 38H6.864a4.937 4.937 0 01-4.936-4.936v-26.2a4.937 4.937 0 014.936-4.936h26.12a4.937 4.937 0 014.936 4.936v26.2zM20.876 9.409h-8.793a.989.989 0 00-.977.951v19.745a.949.949 0 00.951.951h4.885a.977.977 0 00.977-.977V27.3H20.7a8.947 8.947 0 10.18-17.893zm0 15.991h-3.882a.976.976 0 00-.977.977v2.777H13.06V11.338h7.661a7.032 7.032 0 11.155 14.062zm.309-11.492h-4.963a.977.977 0 00-.977.977v6.761a.977.977 0 00.977.977h4.91A4.323 4.323 0 0025.5 18.3a4.378 4.378 0 00-4.316-4.391zm-.077 6.761h-3.934v-4.832h3.933a2.52 2.52 0 012.468 2.463 2.448 2.448 0 01-2.468 2.365z" fill="#00427c"/></svg>