<svg xmlns="http://www.w3.org/2000/svg" width="668" height="240"><defs><clipPath id="a"><path transform="translate(0 7288)" fill="none" stroke="#707070" d="M0 0h668v240H0z"/></clipPath></defs><g transform="translate(0 -7288)" clip-path="url(#a)"><g fill="#00427c"><path d="M581.274 7290.643l-319.778 196.079c-10.613 6.508-19.219 23.745-19.243 38.509l-.63 427.822c-.023 14.753 8.56 21.447 19.173 14.951l319.77-196.091c10.612-6.508 19.231-23.745 19.254-38.5l.618-427.822c.023-14.765-8.56-21.459-19.161-14.951" opacity=".8"/><path d="M18.163 7316.093l319.78 196.08c10.613 6.508 19.219 23.745 19.243 38.509l.629 427.822c.024 14.753-8.56 21.459-19.161 14.951l-319.781-196.08c-10.613-6.507-19.231-23.756-19.255-38.509L-1 7331.042c-.023-14.764 8.56-21.459 19.161-14.951"/><path d="M786.839 8088.242l-319.782-196.079c-10.612-6.507-19.219-23.745-19.243-38.509l-.63-427.821c-.023-14.753 8.56-21.447 19.162-14.951l319.782 196.09c10.613 6.508 19.231 23.745 19.254 38.5l.618 427.821c.023 14.764-8.56 21.459-19.161 14.951" opacity=".6"/></g></g></svg>