<svg xmlns="http://www.w3.org/2000/svg" width="45.5" height="45.5"><defs><style>.a{fill:#00427c;stroke:#00427c;stroke-width:.5px}</style></defs><g transform="translate(.25 .25)"><path class="a" d="M8.327 26.032a2.636 2.636 0 103.826 3.148h6.831a2.637 2.637 0 110 5.273H8.438a4.395 4.395 0 000 8.789h8.789a.879.879 0 000-1.758H8.438a2.637 2.637 0 010-5.273h10.546a4.395 4.395 0 100-8.789h-6.83a2.65 2.65 0 00-1.145-1.39l6.713-11.014a9.668 9.668 0 10-16.108 0zm1.341 3.148a.879.879 0 11.879-.879.88.88 0 01-.879.879zm0-27.422a7.911 7.911 0 016.582 12.3l-.02.031-6.562 10.765-6.582-10.8a7.911 7.911 0 016.582-12.3z"/><path class="a" d="M9.668 14.062a4.395 4.395 0 10-4.395-4.394 4.4 4.4 0 004.395 4.394zm0-7.031a2.637 2.637 0 11-2.637 2.637 2.64 2.64 0 012.637-2.637zM35.332 14.59a9.669 9.669 0 00-8.049 15.025l6.688 10.491a2.65 2.65 0 00-1.125 1.379h-7.71a.879.879 0 000 1.758h7.71a2.636 2.636 0 103.846-3.136l6.688-10.491a9.669 9.669 0 00-8.048-15.026zm0 28.652a.879.879 0 11.879-.879.88.88 0 01-.879.879zm6.582-14.6l-6.582 10.324-6.582-10.324a7.91 7.91 0 1113.163 0z"/><path class="a" d="M35.332 19.863a4.395 4.395 0 104.395 4.395 4.4 4.4 0 00-4.395-4.395zm0 7.031a2.637 2.637 0 112.637-2.637 2.64 2.64 0 01-2.637 2.637z"/><circle class="a" cx=".879" cy=".879" r=".879" transform="translate(20.303 41.484)"/></g></svg>