<svg xmlns="http://www.w3.org/2000/svg" width="52.167" height="45.5"><defs><style>.a{fill:#00427c;stroke:#00427c;stroke-width:.5px}</style></defs><g transform="translate(-7.75 -39.749)"><path class="a" d="M58.833 48.333h-50a.833.833 0 00-.833.833v31.667a.833.833 0 00.833.833h2.5v1.667H10.5a.833.833 0 100 1.667h5.833a.833.833 0 100-1.667H15.5v-1.667h36.667v1.667h-.833a.833.833 0 100 1.667h5.833a.833.833 0 100-1.667h-.833v-1.667h2.5a.833.833 0 00.833-.833V49.166a.833.833 0 00-.834-.833zm-45 35H13v-1.667h.833zm40.833 0h-.833v-1.667h.833zM58 80H9.667v-1.667H58zm0-3.333H9.667V50H58z"/><circle class="a" cx=".833" cy=".833" r=".833" transform="translate(33 44.999)"/><path class="a" d="M35.5 44.799a.833.833 0 00.556-1.454 3.333 3.333 0 00-4.445 0 .833.833 0 101.111 1.242 1.667 1.667 0 012.222 0 .83.83 0 00.555.212z"/><path class="a" d="M31.056 42.727a4.167 4.167 0 015.555 0 .833.833 0 001.111-1.242 5.833 5.833 0 00-7.778 0 .833.833 0 101.111 1.242z"/></g></svg>