<svg xmlns="http://www.w3.org/2000/svg" viewBox="0 0 104.1 115.5"><defs><style>.cls-1{fill:#00427c;}</style></defs><title>Asset 1</title><g id="Layer_2" data-name="Layer 2"><g id="logo_bcc_pata" data-name="logo bcc pata"><path id="Path_3" data-name="Path 3" class="cls-1" d="M.14,60.5V40.9H11.43l2.83,2.82v5.55l-1.43,1.43,1.43,1.43v5.55L11.43,60.5ZM11.46,44.88l-1.23-1.23H2.94v5.69h7.29l1.23-1.24Zm0,8.43-1.23-1.23H2.94v5.69h7.29l1.23-1.24Z"/><path id="Path_4" data-name="Path 4" class="cls-1" d="M19.35,60.51V40.9h2.81V57.77h9.08v2.75Z"/><path id="Path_5" data-name="Path 5" class="cls-1" d="M37.31,60.51l-2.83-2.83V40.9h2.8V56.53l1.24,1.24h6.06l1.23-1.24V40.9h2.81V57.68l-2.83,2.83Z"/><path id="Path_6" data-name="Path 6" class="cls-1" d="M53.82,60.51V40.9h13v2.75H56.62v5.69H64v2.75h-7.4v5.69h10.2v2.75Z"/><path id="Path_7" data-name="Path 7" class="cls-1" d="M2.83,88,0,85.18v-14l2.83-2.83H11.3l2.83,2.83V74H11.32V72.37l-1.23-1.23H4L2.8,72.37V84L4,85.26h6.06L11.32,84V82.37h2.81v2.81L11.3,88Z"/><path id="Path_8" data-name="Path 8" class="cls-1" d="M18,88V85.26h3.37V71.14H18V68.39h9.53v2.75H24.17V85.26h3.37V88Z"/><path id="Path_9" data-name="Path 9" class="cls-1" d="M35.61,88V71.14H30V68.39H44.08v2.75H38.42V88Z"/><path id="Path_10" data-name="Path 10" class="cls-1" d="M52.34,88V79.57H50.91l-4.23-4.23v-7h2.81v5.8l2.63,2.63h3.25L58,74.19v-5.8h2.8v6.95l-4.23,4.23H55.15V88Z"/><path id="Path_11" data-name="Path 11" class="cls-1" d="M2.83,115.5,0,112.67v-14l2.83-2.83H11.3l2.83,2.83v2.8H11.32V99.86l-1.23-1.24H4L2.8,99.86v11.66L4,112.75h6.06l1.23-1.24v-1.65h2.81v2.8L11.3,115.5Z"/><path id="Path_12" data-name="Path 12" class="cls-1" d="M18.77,115.5V95.88h13v2.74H21.57v5.69H29v2.75h-7.4v5.69h10.2v2.74Z"/><path id="Path_13" data-name="Path 13" class="cls-1" d="M47.57,115.5v-7.2L39,99.78V115.5h-2.8V95.88H39l8.52,8.52V95.88h2.8V115.5Z"/><path id="Path_14" data-name="Path 14" class="cls-1" d="M59.37,115.5V98.62H53.71V95.88H67.83v2.74H62.17V115.5Z"/><path id="Path_15" data-name="Path 15" class="cls-1" d="M71.13,115.5V95.88h13v2.74H73.93v5.69h7.4v2.75h-7.4v5.69h10.2v2.74Z"/><path id="Path_16" data-name="Path 16" class="cls-1" d="M100,115.5v-1.65L93.25,107H91.53v8.43h-2.8V95.88H100l2.83,2.83v5.52L100,107H97.2l5.63,5.63v2.8Zm0-15.64-1.24-1.24H91.5v5.69h7.29l1.24-1.24Z"/><path id="Path_17" data-name="Path 17" class="cls-1" d="M79.06,1.85,71.86,3.6l-7-2.42-7.1,1.47L50.28,0,26.52,6.38V10l-2.16.52V7.4L0,13.73V28.59l1.73-.19v.75l48.52,2.09,53.44-1.5h.42V11.91ZM50.49,23.52V1l7,2.48V22Zm7-1v2h-.15l-5.73-.78Zm7.17-1.55v3.25l-6.72.36V22.38Zm-6.72,1V3.51l6.72-1.39V20.46Zm13.63-2.47v5.43l-6.45-.66V20.83Zm-6.45.92V2.21l6.45,2.23V19Zm11.44-2,2.11,5.92-6.49.58,1.9-6Zm-2.37,0,1.13-3.55,1.09,3.07ZM77,18.26l1.73-.37V23.1Zm-.16-.43-1.32-3.71,3.2-10.06V17.42Zm-1.55-4.46L72.13,4.43l6.53-1.59Zm-.24.74-1.4,4.39-1.61.35V5.64ZM73.52,19,72.06,23.6V19.34Zm29.68-6.4V28.83l-24-4.53V17.78Zm-24,4.69V2.87l23.4,9.4ZM27.4,20.05V7L50,1V23.54Zm21,3.7-21,1.9V20.52ZM.9,14.4,23.44,8.57v2.58L2.34,16.21h0l-.09,0h0l0,.05v0a.21.21,0,0,0,0,.09V27.47l-1.3.15Zm2.69,2,19.85-4.76v7.82ZM23.44,19.9V25L2.63,27.42V16.7Zm-20.81,8L23.7,25.47a.23.23,0,0,0,.21-.23V20l3,.47V25.7L2.63,28.28Zm21.28-8.36v-8l3-.72V20Z"/></g></g></svg>