<svg xmlns="http://www.w3.org/2000/svg" width="38.621" height="31.757"><defs><style>.a{fill:#00427c}</style></defs><circle class="a" cx="2.452" cy="2.452" r="2.452" transform="translate(16.552 26.852)"/><path class="a" d="M38.216 8.249a25.788 25.788 0 00-37.811 0 1.509 1.509 0 102.207 2.057 22.77 22.77 0 0133.4 0 1.509 1.509 0 102.207-2.057z"/><path class="a" d="M32.677 14.48a18.463 18.463 0 00-26.732 0 1.509 1.509 0 002.142 2.125 15.448 15.448 0 0122.449 0 1.509 1.509 0 102.142-2.125zM26.639 20.727a10.886 10.886 0 00-7.342-3.152h-.111a10.887 10.887 0 00-7.343 3.152 1.509 1.509 0 102.124 2.143 7.878 7.878 0 015.219-2.279h.111a7.878 7.878 0 015.219 2.279 1.509 1.509 0 002.124-2.143z"/></svg>