<svg xmlns="http://www.w3.org/2000/svg" width="32.586" height="33.424"><defs><style>.a{fill:none;stroke:#000;stroke-linecap:round;stroke-linejoin:round;stroke-width:2px}</style></defs><path class="a" d="M17.308 32.012l-3.76-4.228a2.118 2.118 0 013.166-2.814l2.634 2.962V15.693a2.04 2.04 0 014.08 0v9.182h2.04a6.119 6.119 0 016.12 6.12v1.02M3.536 31.868a17.153 17.153 0 01-1.654-3.617M1.092 24.554a17.537 17.537 0 01.046-3.979M2.044 16.903a16.942 16.942 0 011.791-3.553M6.234 10.423a17.146 17.146 0 013.145-2.43M12.815 6.416a12.676 12.676 0 011.923-.524M19.347 1.414l6.12 6.12M25.467 1.414l-6.12 6.12"/></svg>