<svg xmlns="http://www.w3.org/2000/svg" width="43.983" height="34.816"><defs><style>.a{fill:#00427c}</style></defs><path class="a" d="M42.693 4.341H27.715a3.243 3.243 0 00-.689-1.015L24.659.959a3.26 3.26 0 00-4.611 0l-2.367 2.367a3.244 3.244 0 00-.689 1.015H1.29a1.29 1.29 0 000 2.58h15.7a3.243 3.243 0 00.689 1.015l2.367 2.367a3.26 3.26 0 004.611 0l2.367-2.367a3.245 3.245 0 00.689-1.015h14.98a1.29 1.29 0 100-2.58zM25.2 6.109l-2.367 2.367a.681.681 0 01-.962 0l-2.367-2.367a.681.681 0 010-.963l2.367-2.367a.681.681 0 01.962 0L25.2 5.146a.681.681 0 010 .963zM42.693 16.29H17.534a3.258 3.258 0 00-.691-1.015l-2.367-2.367a3.26 3.26 0 00-4.611 0L7.5 15.274a3.244 3.244 0 00-.689 1.015H1.29a1.29 1.29 0 100 2.58h5.519a3.243 3.243 0 00.689 1.015l2.367 2.373a3.26 3.26 0 004.611 0l2.367-2.367a3.259 3.259 0 00.691-1.015h25.159a1.29 1.29 0 100-2.58zm-27.674 1.767l-2.367 2.367a.681.681 0 01-.962 0l-2.368-2.367a.681.681 0 010-.962l2.367-2.367a.681.681 0 01.962 0l2.367 2.367a.681.681 0 010 .963zM42.693 27.899h-6.379a3.243 3.243 0 00-.689-1.016l-2.367-2.367a3.26 3.26 0 00-4.611 0l-2.367 2.367a3.245 3.245 0 00-.689 1.015H1.29a1.29 1.29 0 100 2.58h24.3a3.243 3.243 0 00.689 1.016l2.367 2.367a3.26 3.26 0 004.611 0l2.367-2.367a3.244 3.244 0 00.689-1.016h6.379a1.29 1.29 0 100-2.58zM33.8 29.67l-2.366 2.366a.681.681 0 01-.962 0L28.1 29.67a.681.681 0 010-.962l2.367-2.367a.681.681 0 01.962 0l2.367 2.367a.681.681 0 01.004.962z"/></svg>