<svg xmlns="http://www.w3.org/2000/svg" width="35.798" height="39.607"><defs><style>.a{fill:#00427c}</style></defs><path class="a" d="M32.371 0H3.428A3.431 3.431 0 000 3.428v32.751a3.431 3.431 0 003.428 3.428h28.943a3.431 3.431 0 003.429-3.428V3.428A3.431 3.431 0 0032.371 0zM2.285 3.428a1.144 1.144 0 011.143-1.143h28.943a1.144 1.144 0 011.143 1.143V8H2.285zm31.229 32.751a1.144 1.144 0 01-1.143 1.143H3.428a1.144 1.144 0 01-1.143-1.143v-25.9h31.229zm0 0"/><path class="a" d="M25.515 3.998h-2.284a1.143 1.143 0 000 2.285h2.284a1.143 1.143 0 100-2.285zm0 0M31.61 3.998h-2.284a1.143 1.143 0 000 2.285h2.284a1.143 1.143 0 000-2.285zm0 0M6.855 23.802a11.044 11.044 0 1022.088 0q0-.445-.035-.881a11.044 11.044 0 00-22.018 0q-.034.436-.035.881zm11.044 8.759a8.77 8.77 0 01-8.739-8.175 5.007 5.007 0 01.714.389 5.54 5.54 0 006.148 0 3.269 3.269 0 013.753 0 5.541 5.541 0 006.149 0 5 5 0 01.714-.389 8.77 8.77 0 01-8.739 8.175zm0-17.518a8.775 8.775 0 018.582 7 5.646 5.646 0 00-1.754.786 3.27 3.27 0 01-3.754 0 5.54 5.54 0 00-6.148 0 3.269 3.269 0 01-3.753 0 5.63 5.63 0 00-1.754-.786 8.774 8.774 0 018.582-7zm0 0"/></svg>