<svg xmlns="http://www.w3.org/2000/svg" width="150" height="150"><defs><style>.b{fill:#fff}</style></defs><path fill="#00427c" d="M0 0h150v150H0z"/><path class="b" d="M43.089 76.716V64.478h7.05l1.768 1.76v3.466l-.892.892.892.892v3.463l-1.768 1.765zm7.07-9.753l-.771-.771h-4.55v3.552h4.549l.771-.771zm0 5.266l-.771-.768h-4.55v3.552h4.549l.771-.771zM55.081 76.728v-12.25h1.752v10.534h5.669v1.716zM66.299 76.728l-1.768-1.768V64.478h1.749v9.763l.771.771h3.78l.768-.771v-9.763h1.752v10.481l-1.768 1.769zM76.606 76.728v-12.25h8.119v1.714h-6.369v3.552h4.621v1.717h-4.621v3.552h6.37v1.715zM44.768 93.892L43 92.125v-8.716l1.768-1.768h5.284l1.768 1.768v1.749h-1.751v-1.032l-.768-.771H45.52l-.771.771v7.281l.771.768h3.78l.768-.768v-1.034h1.752v1.752l-1.768 1.767zM54.243 93.892v-1.717h2.1v-8.82h-2.1v-1.713h5.951v1.714h-2.1v8.82h2.1v1.716zM65.238 93.892V83.356h-3.533v-1.714h8.818v1.714H66.99v10.536zM75.682 93.892v-5.269h-.892l-2.644-2.641v-4.34h1.75v3.624l1.644 1.644h2.031l1.644-1.644v-3.624h1.749v4.342l-2.641 2.641h-.892v5.267zM44.768 111.058L43 109.29v-8.713l1.768-1.768h5.284l1.768 1.768v1.749h-1.751v-1.032l-.768-.771H45.52l-.771.771v7.278l.771.771h3.78l.768-.771v-1.032h1.752v1.749l-1.768 1.768zM54.722 111.058V98.809h8.119v1.714h-6.37v3.552h4.621v1.717h-4.621v3.552h6.37v1.714zM72.702 111.058v-4.5l-5.32-5.32v9.817h-1.75V98.809h1.749l5.32 5.32v-5.32h1.749v12.249zM80.069 111.058v-10.535h-3.536v-1.714h8.82v1.714H81.82v10.534zM87.41 111.058V98.809h8.119v1.714h-6.367v3.552h4.618v1.717h-4.618v3.552h6.367v1.714zM105.448 111.058v-1.032l-4.226-4.248h-1.075v5.271h-1.749v-12.24h7.053l1.768 1.768v3.447l-1.787 1.754h-1.749l3.517 3.517v1.754zm0-9.763l-.771-.771h-4.549v3.554h4.549l.771-.771zM92.365 40.098l-4.5 1.093-4.365-1.509-4.431.919-4.676-1.658-14.834 3.984v2.26l-1.346.322v-1.945L43 47.519v9.277l1.078-.121v.468l30.293 1.306 33.369-.936h.26V46.382zm-17.838 13.53V39.566l4.361 1.55v11.572zm4.361-.647v1.276H78.8l-3.58-.486zm4.478-.967v2.029l-4.2.223v-1.352zm-4.2.61V41.133l4.2-.87v11.455zm8.512-1.542v3.391l-4.025-.414v-2.116zm-4.025.575V40.321l4.027 1.392v9.076zM90.8 50.41l1.316 3.7-4.05.363 1.184-3.721zm-1.481.027l.7-2.214.681 1.92zm1.772-.089l1.078-.231v3.254zm-.1-.269l-.823-2.316 2-6.281v8.337zm-.969-2.786l-1.987-5.583 4.078-.994zm-.148.465L89 50.496l-1.008.218v-8.246zm-.974 3.063l-.9 2.856v-2.66zm18.535-4v10.122l-14.952-2.831v-4.069zm-14.952 2.933v-9.022l14.617 5.871zM60.11 51.463v-8.127l14.121-3.786v14.093zm13.09 2.308l-13.09 1.19v-3.208zm-29.64-5.838l14.073-3.64v1.611l-13.175 3.16-.059.024a.146.146 0 00-.025.032v.013a.132.132 0 000 .054v6.907l-.814.091zm1.679 1.236l12.394-2.972v4.884zm12.4 2.2v3.213l-12.996 1.48v-6.7zM44.643 56.35l13.155-1.5a.145.145 0 00.132-.142v-3.291l1.881.29v3.28L44.643 56.6zm13.287-5.223v-4.994l1.881-.451v5.736z"/></svg>