<svg xmlns="http://www.w3.org/2000/svg" width="39.029" height="39.031"><path d="M37.078 22.769h-1.952v-6.5a3.256 3.256 0 00-3.253-3.253H21.466a3.256 3.256 0 00-3.253 3.253v6.5h-1.951a1.954 1.954 0 00-1.951 1.952v6.5a3.247 3.247 0 003.046 3.232l-.935 3.273h-6.08a3.258 3.258 0 00-3.187-2.6h-1.3V5.179a3.878 3.878 0 017.717-.548l.011.079a1.94 1.94 0 00-1.173 2.122l.177 1.05-1.739 2.987a1.3 1.3 0 001.119 1.956 1.321 1.321 0 00.222-.019l6.241-1.055a1.3 1.3 0 00.63-2.27l-2.624-2.25-.177-1.05a1.948 1.948 0 00-1.367-1.538l-.028-.2a5.179 5.179 0 00-10.306.732v29.953H3.252v-.65a.65.65 0 10-1.3 0v.923A3.255 3.255 0 000 38.38a.65.65 0 00.651.65h37.728a.65.65 0 000-1.3h-1.461l-.935-3.273a3.247 3.247 0 003.046-3.232v-6.5a1.954 1.954 0 00-1.951-1.952zm-18.865-12.3l-6.241 1.055 1.7-2.927 1.965-.332 2.576 2.2zm-3.129-3.43l-1.283.217-.109-.641a.651.651 0 01.533-.75.667.667 0 01.109-.009.652.652 0 01.641.542zm6.382 7.273h10.408a1.954 1.954 0 011.952 1.952v6.625a1.948 1.948 0 00-1.3 1.832v1.318a3.221 3.221 0 00-1.952-.667H28.24l1.492-1.492a.651.651 0 00-.92-.92l-1.492 1.491v-2.983a.651.651 0 10-1.3 0v2.983l-1.492-1.492a.651.651 0 00-.92.92l1.492 1.492h-2.333a3.221 3.221 0 00-1.952.667V24.72a1.948 1.948 0 00-1.3-1.832v-6.624a1.954 1.954 0 011.952-1.952zm9.107 12.359a1.954 1.954 0 011.952 1.952v.65h-11.71v-.65a1.954 1.954 0 011.952-1.952zm.924 7.806l1.859 3.252H19.985l1.858-3.252zm1.028-1.3h-11.71v-2.6h11.709zm-16.913-1.952v-6.5a.651.651 0 01.65-.651h2.6a.651.651 0 01.65.651v8.456h-1.949a1.954 1.954 0 01-1.952-1.951zm-14.2 6.5a1.954 1.954 0 011.84-1.3h3.9a1.955 1.955 0 011.84 1.305zm16.362 0l.929-3.252h1.641l-1.858 3.252zm17.078 0l-1.86-3.248h1.641l.929 3.252zm2.875-6.5a1.954 1.954 0 01-1.952 1.951h-1.95V24.72a.651.651 0 01.65-.651h2.6a.652.652 0 01.65.651zm0 0" fill="#00427c"/></svg>