<svg xmlns="http://www.w3.org/2000/svg" width="33.168" height="38.521"><path d="M32.918 21.662L29.55.991a.872.872 0 00-.86-.741H4.48a.872.872 0 00-.86.741L.25 21.662v.119a11.234 11.234 0 003.2 7.815L.941 37.124a.874.874 0 00.55 1.1 1.2 1.2 0 00.287.048.876.876 0 00.836-.6l2.294-6.883a11.2 11.2 0 006.476 2.1H21.83a11.161 11.161 0 006.763-2.294l2.366 7.074a.876.876 0 00.836.6h0a.849.849 0 00.239-.048.874.874 0 00.55-1.1l-2.6-7.839a11.011 11.011 0 002.939-7.5zm-11.136 9.512h-10.42a9.4 9.4 0 01-9.368-9.3L5.22 2.015h22.7l3.23 19.863a9.4 9.4 0 01-9.368 9.3zm5.09-6.524a.882.882 0 01-.884.884H7.156a.886.886 0 010-1.768h18.832a.914.914 0 01.884.884z" fill="#00427c" stroke="#00427c" stroke-width=".5"/></svg>