<svg xmlns="http://www.w3.org/2000/svg" width="43.454" height="43.449"><path d="M37.116 6.374a21.762 21.762 0 106.337 15.351 21.336 21.336 0 00-6.337-15.351zm-.714 2.618a19.722 19.722 0 014.819 11.751h-8.865v-.418a21.766 21.766 0 013.927-11.156v-.06zm-1.547 27.161a19.065 19.065 0 01-11.959 5V22.825h7.2a1.194 1.194 0 00.089.446 24.743 24.743 0 004.671 12.881zm-.059-28.738c-.06.089-.089.149-.149.238l-.03.03a14.731 14.731 0 00-1.458 2.35 25.189 25.189 0 00-2.975 10.115c0 .119-.03.238-.03.327v.06h-7.228V2.298a19.639 19.639 0 0111.959 5c-.059.059-.089.089-.089.119zm-2.439 15.827v-.387h8.865a18.913 18.913 0 01-4.79 11.662l-.149-.149a21.4 21.4 0 01-3.927-11.126zM2.34 20.683A19.155 19.155 0 017.13 8.932c.06.06.089.119.149.149a21.693 21.693 0 013.927 11.186v.387zM8.677 7.236a19.4 19.4 0 0111.959-4.938v18.3h-7.2a1.39 1.39 0 00-.089-.506 24.523 24.523 0 00-4.4-12.405c-.089-.119-.119-.208-.178-.3zm11.958 15.53v18.3a19.7 19.7 0 01-11.929-4.968 1.3 1.3 0 00.238-.446 24.906 24.906 0 004.4-12.435c0-.119.03-.208.03-.327 0-.059.03-.089.03-.149zm-9.431.089v.357a22.547 22.547 0 01-3.927 11.245v.06a.411.411 0 01-.089.119 19.722 19.722 0 01-4.819-11.751z" fill="#00427c"/></svg>