<svg xmlns="http://www.w3.org/2000/svg" xmlns:xlink="http://www.w3.org/1999/xlink" width="441" height="279" viewBox="0 0 441 279"><defs><style>.a{fill:none;}.b{clip-path:url(#a);}.c{fill:#f5f5f5;}</style><clipPath id="a"><rect class="a" width="441" height="279" transform="translate(0 -26.74)"/></clipPath></defs><g class="b" transform="translate(0 26.74)"><path class="c" d="M494.492,336.723l261.5,160.343c8.679,5.322,15.717,19.417,15.736,31.491l.515,349.851c.019,12.064-7,17.538-15.679,12.226L495.074,730.281c-8.678-5.322-15.726-19.417-15.745-31.481l-.506-349.851c-.019-12.074,7-17.548,15.669-12.226" transform="translate(-330.824 -361.054)"/><path class="c" d="M776.189,346.3l-261.5,160.343c-8.679,5.322-15.717,19.417-15.736,31.491l-.515,349.851c-.019,12.064,7,17.548,15.669,12.226l261.5-160.344c8.679-5.321,15.726-19.426,15.746-31.491l.505-349.851c.019-12.073-7-17.548-15.669-12.226" transform="translate(-498.438 -283.298)"/></g></svg>