<svg xmlns="http://www.w3.org/2000/svg" width="44.747" height="46.477"><path d="M16.675 46.477a2.573 2.573 0 01-2.568-2.568v-.779a14.4 14.4 0 01-4.356-1.818l-.519.548a2.56 2.56 0 01-3.635.029l-.029-.029-1.01-1.01a2.578 2.578 0 01-.029-3.606l.577-.577a13.757 13.757 0 01-1.789-4.356h-.75A2.573 2.573 0 010 29.744V28.33a2.573 2.573 0 012.568-2.568h.75a14.328 14.328 0 011.789-4.356l-.548-.548a2.56 2.56 0 010-3.635l1.01-1.01a2.56 2.56 0 013.635 0l.548.548a13.756 13.756 0 014.356-1.789v-.75a2.573 2.573 0 012.568-2.568h1.442a2.573 2.573 0 012.568 2.568v.75a14.329 14.329 0 014.356 1.789l.577-.577a2.577 2.577 0 013.606 0l1.01 1.01a2.56 2.56 0 010 3.635l-.548.548a14.521 14.521 0 011.813 4.357h.779a2.573 2.573 0 012.572 2.566v1.414a2.573 2.573 0 01-2.568 2.568H31.5a15.167 15.167 0 01-1.818 4.356l.577.577a2.56 2.56 0 010 3.635l-1.01 1.01a2.56 2.56 0 01-3.635 0l-.577-.577a14.521 14.521 0 01-4.356 1.818v.779a2.573 2.573 0 01-2.568 2.568zm-7.039-7.5a.958.958 0 01.606.2 12.026 12.026 0 005.078 2.135 1.021 1.021 0 01.837 1.01v1.616a.542.542 0 00.519.548h1.442a.542.542 0 00.548-.519v-1.616a1.021 1.021 0 01.837-1.01 12.688 12.688 0 005.078-2.106 1.016 1.016 0 011.327.115l1.154 1.183a.54.54 0 00.75 0l1.01-.981a.54.54 0 000-.75l-1.183-1.154a1.048 1.048 0 01-.115-1.327 12.182 12.182 0 002.135-5.078 1.021 1.021 0 011.01-.837h1.616a.542.542 0 00.548-.519v-1.412a.524.524 0 00-.519-.548h-1.647a1.021 1.021 0 01-1.01-.837 12.182 12.182 0 00-2.135-5.078 1.013 1.013 0 01.115-1.327l1.154-1.125a.54.54 0 000-.75l-1.009-1.01a.54.54 0 00-.75 0l-1.154 1.154a1.079 1.079 0 01-.721.288 1.04 1.04 0 01-.577-.173 12.356 12.356 0 00-5.08-2.105 1 1 0 01-.865-1.01v-1.616a.517.517 0 00-.519-.519h-1.441a.517.517 0 00-.519.519v1.616a1.047 1.047 0 01-.865 1.01 12.29 12.29 0 00-5.078 2.106 1.04 1.04 0 01-.577.173 1.138 1.138 0 01-.721-.288L7.79 17.83a.54.54 0 00-.75 0l-.981.981a.54.54 0 000 .75l1.125 1.125a1.008 1.008 0 01.115 1.3 12.356 12.356 0 00-2.106 5.078 1.024 1.024 0 01-1.01.865H2.6a.524.524 0 00-.519.548v1.414a.542.542 0 00.519.548h1.616a1.047 1.047 0 011.01.865 12.133 12.133 0 002.106 5.078 1.008 1.008 0 01-.115 1.3l-1.154 1.183a.54.54 0 000 .75l1.01 1.01a.54.54 0 00.75 0l1.125-1.154a.763.763 0 01.692-.49zm8.482 7.1h-1.443a2.161 2.161 0 01-2.164-2.164v-1.1a13.925 13.925 0 01-4.818-2.019l-.779.779a2.177 2.177 0 01-3.058.029l-.029-.029-1.01-1.01a2.142 2.142 0 010-3.029l.808-.808a13.867 13.867 0 01-1.991-4.818h-1.1A2.161 2.161 0 01.37 29.744V28.33a2.174 2.174 0 012.169-2.13h1.1a13.551 13.551 0 011.991-4.818l-.779-.779a2.177 2.177 0 010-3.058l1.01-1.01a2.177 2.177 0 013.058 0l.779.779a13.867 13.867 0 014.818-1.991v-1.1a2.161 2.161 0 012.164-2.164h1.442a2.161 2.161 0 012.164 2.164v1.1A13.338 13.338 0 0125.1 17.31l.808-.808a2.142 2.142 0 013.029 0l1.01 1.01a2.177 2.177 0 010 3.058l-.029.029-.779.779a13.925 13.925 0 012.019 4.822h1.1a2.179 2.179 0 012.164 2.164v1.414a2.179 2.179 0 01-2.164 2.164h-1.1a13.925 13.925 0 01-2.019 4.818l.808.808a2.177 2.177 0 010 3.058l-1.01 1.01a2.177 2.177 0 01-3.058 0l-.808-.808a13.925 13.925 0 01-4.818 2.019v1.1a2.149 2.149 0 01-2.135 2.126zm-8.482-6.664a.5.5 0 01.346.115 12.445 12.445 0 005.251 2.193.617.617 0 01.49.606v1.616a.96.96 0 00.952.952h1.442a.96.96 0 00.952-.952v-1.616a.617.617 0 01.49-.606 12.445 12.445 0 005.251-2.193.611.611 0 01.779.058l1.154 1.183a.812.812 0 00.664.26.914.914 0 00.664-.26l1.01-.981a.923.923 0 000-1.327L27.9 37.3a.611.611 0 01-.058-.779 12.445 12.445 0 002.193-5.251.617.617 0 01.606-.49h1.616a.96.96 0 00.952-.952v-1.411a.96.96 0 00-.952-.952h-1.619a.617.617 0 01-.606-.49 12.445 12.445 0 00-2.193-5.251.654.654 0 01.058-.808l1.154-1.125a.907.907 0 000-1.327l-1.01-1.01a.923.923 0 00-1.327 0l-1.154 1.154a.611.611 0 01-.779.058 12.6 12.6 0 00-5.251-2.193.62.62 0 01-.519-.606v-1.615a.96.96 0 00-.952-.952h-1.442a.96.96 0 00-.952.952v1.616a.617.617 0 01-.49.606 12.551 12.551 0 00-5.251 2.164.611.611 0 01-.779-.058L8.02 17.454a.907.907 0 00-1.327 0l-1.01 1.01a.923.923 0 000 1.327l1.125 1.125a.611.611 0 01.058.779A12.776 12.776 0 004.7 26.946a.62.62 0 01-.606.519H2.51a.96.96 0 00-.952.952v1.414a.96.96 0 00.952.952h1.616a.644.644 0 01.606.519A12.551 12.551 0 006.9 36.553a.611.611 0 01-.058.779l-1.154 1.154a.923.923 0 000 1.327l1.01 1.01a.923.923 0 001.327 0l1.125-1.154a.508.508 0 01.486-.26zm7.764-1.851a8.514 8.514 0 11-.462-17.021h.779a8.5 8.5 0 01.029 16.993 1.4 1.4 0 01-.346.029zm0-14.973a6.42 6.42 0 10.26 0zm0 14.569a8.121 8.121 0 115.857-2.51 8.157 8.157 0 01-5.857 2.51zm0-15a6.9 6.9 0 10.288 0zm23.109 1.212a2.3 2.3 0 001.442-.923l.664-.923a2.256 2.256 0 00-.548-3.116l-.375-.26a11.622 11.622 0 00.75-3.4l.433-.087a2.258 2.258 0 001.846-2.6l-.2-1.1A2.258 2.258 0 0042.3 9.115a1.645 1.645 0 00-.375.029l-.462.087a11.476 11.476 0 00-1.875-2.972l.26-.375a2.226 2.226 0 00-.548-3.116l-.952-.664a2.3 2.3 0 00-1.3-.4 2.27 2.27 0 00-1.846.952l-.26.375a11.422 11.422 0 00-3.4-.75l-.087-.433A2.258 2.258 0 0029.225 0a1.9 1.9 0 00-.4.029l-1.1.2a2.232 2.232 0 00-1.818 2.6l.087.433a10.711 10.711 0 00-2.914 1.875l-.375-.26a2.264 2.264 0 00-3.145.548l-.664.923a2.264 2.264 0 00.548 3.145l1.039.721a1.04 1.04 0 00.577.173 1.052 1.052 0 00.837-.433 1.018 1.018 0 00-.26-1.414L20.6 7.818a.159.159 0 01-.087-.144.366.366 0 01.029-.173l.664-.923a.206.206 0 01.173-.087c.058 0 .087.029.115.029l1.039.721a1.008 1.008 0 001.3-.115 9.547 9.547 0 013.606-2.308 1.017 1.017 0 00.664-1.125l-.2-1.241a.225.225 0 01.173-.26l1.1-.2h.024c.058 0 .087 0 .115.029a.159.159 0 01.087.144l.231 1.241a1.021 1.021 0 001.01.837 9.4 9.4 0 014.154.923 1.209 1.209 0 00.433.115 1.052 1.052 0 00.837-.433l.75-1.039a.206.206 0 01.173-.087c.058 0 .087 0 .115.029l.923.664a.159.159 0 01.087.144.366.366 0 01-.029.173l-.721 1.039a1.048 1.048 0 00.115 1.327 9.547 9.547 0 012.308 3.606 1 1 0 00.952.664h.173l1.269-.231h.029a.193.193 0 01.2.173l.2 1.1a.366.366 0 01-.029.173.159.159 0 01-.144.087l-1.269.2a1 1 0 00-.837 1.01 9.494 9.494 0 01-.894 4.183 1.034 1.034 0 00.346 1.269l1.039.721a.159.159 0 01.087.144.366.366 0 01-.029.173l-.664.894a.159.159 0 01-.144.087h-.029c-.058 0-.087 0-.115-.029L38.89 20.6a1.04 1.04 0 00-.577-.173 1.052 1.052 0 00-.837.433 1.161 1.161 0 00-.173.75 1.227 1.227 0 00.4.664l1.039.721a2.282 2.282 0 001.269.4 1.275 1.275 0 00.49-.029zm-.087-.4a1.743 1.743 0 001.183-.75l.664-.923a1.848 1.848 0 00-.469-2.573l-.635-.433a11.392 11.392 0 00.865-3.895l.75-.115a1.87 1.87 0 001.212-.75 1.82 1.82 0 00.317-1.385l-.231-1.1a1.869 1.869 0 00-2.106-1.5l-.808.144a11.164 11.164 0 00-2.135-3.375l.433-.635A1.814 1.814 0 0039 3.141l-.923-.664a1.848 1.848 0 00-2.568.462l-.433.635a11.245 11.245 0 00-3.895-.865l-.144-.75a1.838 1.838 0 00-2.135-1.5l-1.1.2A1.838 1.838 0 0026.311 2.8l.144.75a11.608 11.608 0 00-3.347 2.135l-.635-.433a1.848 1.848 0 00-2.568.462l-.635.923A1.846 1.846 0 0019.7 9.2l1.039.721a.624.624 0 00.692-1.039L20.4 8.164a.561.561 0 01-.26-.4.519.519 0 01.115-.462l.664-.923a.609.609 0 01.865-.144l1.039.721a.615.615 0 00.779-.087 9.72 9.72 0 013.75-2.395.625.625 0 00.4-.664l-.2-1.241a.625.625 0 01.49-.721l1.1-.2a.641.641 0 01.462.087.561.561 0 01.26.4l.231 1.241a.617.617 0 00.606.49 9.916 9.916 0 014.356.981.586.586 0 00.75-.2l.721-1.039a.609.609 0 01.865-.144l.923.664a.609.609 0 01.144.865l-.721 1.01a.582.582 0 00.087.779 9.72 9.72 0 012.395 3.75.61.61 0 00.692.4l1.269-.231a.624.624 0 01.721.519l.2 1.1a.625.625 0 01-.49.721l-1.269.2a.644.644 0 00-.519.606 9.888 9.888 0 01-.952 4.356.631.631 0 00.2.75l1.039.721a.609.609 0 01.144.865l-.664.923a.609.609 0 01-.865.144l-1.039-.721a.617.617 0 10-.75.981c.029 0 .029.029.058.029l1.039.721a1.728 1.728 0 001.039.346.471.471 0 00.346 0zm-3.808-5.28a6.96 6.96 0 00-5.857-10.732 6.751 6.751 0 00-1.1.087 6.971 6.971 0 00-4.645 2.885 1.16 1.16 0 00-.173.75 1.021 1.021 0 001.01.837 1.052 1.052 0 00.837-.433 4.967 4.967 0 013.289-2.048 7.074 7.074 0 01.779-.058 4.866 4.866 0 012.972 1.01 4.954 4.954 0 011.154 6.607 1.025 1.025 0 101.731 1.1zm-.346-.2a6.564 6.564 0 00-10.761-7.5c-.058.058-.087.144-.144.2a.6.6 0 00.144.837.627.627 0 00.837-.144 5.363 5.363 0 017.472-1.3.629.629 0 01.144.115 5.365 5.365 0 011.269 7.155.628.628 0 00.173.837.651.651 0 00.865-.2z" fill="#00427c"/></svg>