<svg xmlns="http://www.w3.org/2000/svg" width="46.821" height="44.566"><path d="M46.819 26.215a11.062 11.062 0 01-10.06 10.959v6.417a.959.959 0 01-.924.95.947.947 0 01-.95-.95v-6.417a10.932 10.932 0 01-8.366-5.082.916.916 0 01.282-1.283.926.926 0 01.513-.154.914.914 0 01.8.436 9.065 9.065 0 006.776 4.184v-9.06a.947.947 0 01.95-.95.932.932 0 01.95.95v3.465l2.329-1.874a1.028 1.028 0 01.59-.205.964.964 0 01.95.95.949.949 0 01-.359.744l-3.516 2.823v3.208a9.115 9.115 0 002.875-17.351.919.919 0 01-.462-1.232.964.964 0 01.873-.565.937.937 0 01.385.077 11.06 11.06 0 016.364 9.96zm-26.8 4.594a.969.969 0 00-1.283.282 9.065 9.065 0 01-6.776 4.184v-9.06a.95.95 0 10-1.9 0v3.465l-2.336-1.874a.931.931 0 00-1.305.129.958.958 0 00.128 1.309l3.516 2.823v3.208a9.115 9.115 0 01-2.875-17.351.919.919 0 00.462-1.232.964.964 0 00-.873-.565 1.03 1.03 0 00-.385.077l-.026.026a11.008 11.008 0 003.7 20.944v6.417a.95.95 0 101.9 0v-6.417a10.932 10.932 0 008.367-5.082.951.951 0 00-.308-1.283zm4.338-.59v13.4a.947.947 0 01-.95.95.942.942 0 01-.95-.924v-13.4a16.632 16.632 0 01-1.976-.257A14.9 14.9 0 018.552 16.359c-.026-.308-.026-.616-.026-.95a14.9 14.9 0 1129.773-1.027v1.027c0 .334 0 .642-.026.95a14.65 14.65 0 01-13.911 13.86zM36.4 16.235c.026-.282.026-.539.026-.821a13 13 0 00-26-.026c0 .282 0 .539.026.821a13.02 13.02 0 0010.42 11.905 11.61 11.61 0 001.617.205v-12.5l-4.286-3.439a.932.932 0 011.155-1.463l3.131 2.49V8.402a.947.947 0 01.95-.95.932.932 0 01.95.95v14.3l6.211-4.979a.95.95 0 011.54.744.9.9 0 01-.359.719l-7.392 5.9v3.208A12.742 12.742 0 0036.4 16.235z" fill="#00427c"/></svg>