<svg xmlns="http://www.w3.org/2000/svg" width="563" height="322"><defs><clipPath id="a"><path transform="translate(0 758)" fill="none" d="M0 0h563v322H0z"/></clipPath></defs><g transform="translate(0 -758)" clip-path="url(#a)"><g fill="#fff"><path d="M402.746 762.572L181.56 898.196c-7.341 4.5-13.294 16.424-13.31 26.636l-.436 295.916c-.016 10.2 5.921 14.834 13.261 10.341l221.179-135.632c7.34-4.5 13.3-16.424 13.318-26.628L416 772.914c.016-10.213-5.921-14.843-13.253-10.342" opacity=".8"/><path d="M13.254 780.176L234.44 915.8c7.341 4.5 13.294 16.424 13.31 26.636l.435 295.916c.016 10.2-5.921 14.843-13.253 10.341L13.746 1113.069c-7.341-4.5-13.3-16.431-13.318-26.636L.001 790.518c-.016-10.212 5.921-14.843 13.253-10.341"/><path d="M544.932 1314.256l-221.187-135.624c-7.34-4.5-13.293-16.424-13.31-26.636l-.436-295.915c-.016-10.2 5.921-14.835 13.254-10.342L544.44 981.371c7.341 4.5 13.3 16.424 13.318 26.628l.427 295.915c.016 10.212-5.921 14.843-13.253 10.341" opacity=".6"/></g></g></svg>