<svg xmlns="http://www.w3.org/2000/svg" width="50.75" height="29.993"><path d="M41.58.189l-7.331 4.6.919 1.485-2.334.849-3.913-1.391a4.144 4.144 0 00-1.414-.236 4.041 4.041 0 00-1.886.448 10.933 10.933 0 00-5.445.189 51.582 51.582 0 01-4.266.189h-.07L16.948 4.5 9.548 0 0 15.722l7.4 4.5 1.179-1.956.66.5a2.7 2.7 0 002.286 4.031 2.744 2.744 0 002.145 2.805 4.639 4.639 0 00.566.071 3.855 3.855 0 00.519-.047 2.7 2.7 0 002.546 2.4h.165a2.842 2.842 0 001.155-.259 2.706 2.706 0 002.664 2.145h.024a2.634 2.634 0 001.7-.613l1.461-1.2 1.98 1.414a2.51 2.51 0 003.536-.589 4.3 4.3 0 00.636-1.273 2.6 2.6 0 001.108.236 2.3 2.3 0 001.956-1.131l.047-.071a4 4 0 00.566-1.249 1.67 1.67 0 00.33.024 2.533 2.533 0 002.381-1.933 2.593 2.593 0 00.094-1.037 2.625 2.625 0 002.381-2.428v-.306l2.616-2.4 1.32 2.1 7.331-4.573zM2.121 15.2l7.944-13.082 4.761 2.9L6.883 18.1zM41.085 2.33l7.5 12.022-4.718 2.948-7.52-12.02zm-2.239 15.84a2.851 2.851 0 00-.377-.37l-10.3-8.344-.189.118a8.461 8.461 0 01-6.459.778.275.275 0 01-.024-.519 18.911 18.911 0 004.5-2.31 2.657 2.657 0 011.509-.471h.118a2.3 2.3 0 01.778.165l4.431 1.579 3.159-1.155 5.233 8.344zm-10.324-2.778a.77.77 0 00-.778.778.752.752 0 00.33.636l6.977 5a1.25 1.25 0 01.448.778 1.1 1.1 0 01-.236.849c-.306.4-.5.448-.613.448a1.169 1.169 0 01-.471-.189l-6.6-4.738a.788.788 0 00-1.084.189.757.757 0 00.189 1.061l5.822 4.172a.571.571 0 01.236.636 2.381 2.381 0 01-.424.966.7.7 0 01-.613.354 1.56 1.56 0 01-.778-.283l-5.539-3.984a.763.763 0 00-1.061.236.781.781 0 00.189 1.037l4.172 2.994a.888.888 0 01.259.707 1.7 1.7 0 01-.306.9 1 1 0 01-.778.377.917.917 0 01-.542-.165l-1.909-1.367a2.707 2.707 0 00-1.485-3.536 2.634 2.634 0 00-1.037-.212h-.259a2.718 2.718 0 00-2.357-2.546l-.141-.024a2.733 2.733 0 00-2.051-2.876 2.982 2.982 0 00-.66-.071 2.731 2.731 0 00-1.414.4 2.746 2.746 0 00-2.64-2.074h-.024a2.77 2.77 0 00-1.7.613l-1.32 1.108-.943-.684L14.9 7.779h1.014c1.509 0 3.041-.071 4.526-.212h.071a8.844 8.844 0 012.734-.424h.255a16.153 16.153 0 01-2.522 1.131 1.849 1.849 0 00-1.108 2.334 1.891 1.891 0 001.23 1.131 9.776 9.776 0 006.883-.542l9.5 7.708a1.106 1.106 0 01.141 1.532 1.129 1.129 0 01-.825.377 1.168 1.168 0 01-.613-.189l-7.236-5.186c-.122 0-.287-.047-.428-.047zm-4.9 11.314l-1.65 1.367a1.2 1.2 0 01-.731.259 1.157 1.157 0 01-1.155-1.155 1.132 1.132 0 01.4-.872l1.65-1.367a1.344 1.344 0 01.66-.259h.118a1.158 1.158 0 011.108 1.2 1.073 1.073 0 01-.4.825zm-7.331-1.532a1.124 1.124 0 01.424-.778l2.5-2.051a1.154 1.154 0 01.66-.259h.071a1.156 1.156 0 01.731 2.051l-2.5 2.051a1.2 1.2 0 01-.731.259 1.166 1.166 0 01-.9-.424 1.027 1.027 0 01-.258-.849zm-2.051-1.108a1.157 1.157 0 01-1.155-1.155 1.218 1.218 0 01.4-.9l3.18-2.611a1.027 1.027 0 01.684-.259h.071a1.156 1.156 0 01.731 2.051l-3.182 2.616a1.2 1.2 0 01-.731.259zm-3.512-3.324a1.138 1.138 0 01.141-1.556l1.768-1.461a1.154 1.154 0 01.66-.259h.118a1.173 1.173 0 011.131 1.179 1.107 1.107 0 01-.424.849l-1.744 1.438a1.146 1.146 0 01-1.65-.189z" fill="#00427c"/></svg>